<svg xmlns="http://www.w3.org/2000/svg" viewBox="0 0 379.615 23.315">
  <defs>
    <style>
      .cls-1 {
        fill: #485460;
      }
    </style>
  </defs>
  <path id="Subtraction_26" data-name="Subtraction 26" class="cls-1" d="M405.616,23.315H26V18.572a73.332,73.332,0,0,0,7.353.966c4.667.441,12.727.966,24.617.966,13.366,0,28.751-.65,45.727-1.933,21.554-1.628,48.87-4.776,77.789-8.109h.009C218.992,6.141,257.766,1.672,282.928.8,298.253.269,312.8,0,326.173,0c13.776,0,26.524.285,37.892.847,9.094.449,17.329,1.076,24.478,1.862,12.17,1.339,17.026,2.7,17.074,2.709v17.9Z" transform="translate(-26)"/>
</svg>
